<svg width="80" height="80" viewBox="0 0 80 80" fill="none" xmlns="http://www.w3.org/2000/svg">
<g id="fi-sr-smile" clip-path="url(#clip0_5_307)">
<path id="Vector" d="M40 0C32.0888 0 24.3552 2.34596 17.7772 6.74122C11.1992 11.1365 6.07234 17.3836 3.04484 24.6927C0.0173314 32.0017 -0.774802 40.0444 0.768607 47.8036C2.31202 55.5629 6.12165 62.6902 11.7157 68.2843C17.3098 73.8784 24.4372 77.688 32.1964 79.2314C39.9556 80.7748 47.9983 79.9827 55.3074 76.9552C62.6164 73.9277 68.8635 68.8008 73.2588 62.2228C77.6541 55.6448 80 47.9113 80 40C79.9885 29.3949 75.7706 19.2274 68.2716 11.7284C60.7727 4.22943 50.6052 0.0114703 40 0V0ZM26.6667 26.6667C28.4348 26.6667 30.1305 27.369 31.3807 28.6193C32.631 29.8695 33.3334 31.5652 33.3334 33.3333C33.3334 36.6667 30.35 36.6667 26.6667 36.6667C22.9834 36.6667 20 36.6667 20 33.3333C20 31.5652 20.7024 29.8695 21.9526 28.6193C23.2029 27.369 24.8986 26.6667 26.6667 26.6667ZM58.8867 52.4867C53.5938 57.0084 46.9526 59.6504 40 60C33.0474 59.6504 26.4062 57.0084 21.1133 52.4867C20.4538 51.8979 20.0552 51.0712 20.0052 50.1886C19.9805 49.7515 20.042 49.3139 20.1864 48.9006C20.3308 48.4873 20.5551 48.1066 20.8467 47.78C21.1382 47.4534 21.4912 47.1875 21.8855 46.9974C22.2798 46.8073 22.7077 46.6966 23.1448 46.6719C24.0275 46.6219 24.8938 46.9246 25.5534 47.5133C29.6274 50.9403 34.6881 52.9791 40 53.3333C45.3151 52.9788 50.3785 50.9376 54.4534 47.5067C54.7803 47.2156 55.1615 46.9917 55.575 46.8479C55.9885 46.7041 56.4262 46.6432 56.8633 46.6686C57.3003 46.6939 57.7281 46.8052 58.1222 46.9959C58.5163 47.1866 58.8689 47.453 59.16 47.78C59.4511 48.107 59.675 48.4881 59.8188 48.9016C59.9626 49.3151 60.0235 49.7529 59.9981 50.1899C59.9728 50.627 59.8615 51.0548 59.6708 51.4488C59.4801 51.8429 59.2137 52.1956 58.8867 52.4867ZM53.3334 36.6667C49.65 36.6667 46.6667 36.6667 46.6667 33.3333C46.6667 31.5652 47.3691 29.8695 48.6193 28.6193C49.8695 27.369 51.5652 26.6667 53.3334 26.6667C55.1015 26.6667 56.7972 27.369 58.0474 28.6193C59.2976 29.8695 60 31.5652 60 33.3333C60 36.6667 57.0167 36.6667 53.3334 36.6667Z" fill="#D2C1AC" fill-opacity="0.75"/>
</g>
<defs>
<clipPath id="clip0_5_307">
<rect width="80" height="80" fill="white"/>
</clipPath>
</defs>
</svg>
