<svg width="80" height="80" viewBox="0 0 80 80" fill="none" xmlns="http://www.w3.org/2000/svg">
<rect width="80" height="80" fill="#1E1E1E"/>
<g id="ty ty">
<rect width="1440" height="7430" transform="translate(-296 -2347)" fill="white"/>
<g id="Features">
<path id="Vector" d="M58.326 0.000244141C54.574 0.0628226 50.9038 1.18591 47.6861 3.25609C44.4684 5.32627 41.8172 8.27024 40 11.7907C38.1829 8.27024 35.5316 5.32627 32.3139 3.25609C29.0962 1.18591 25.4261 0.0628226 21.6741 0.000244141C15.693 0.278894 10.0578 3.08453 5.99967 7.80421C1.94157 12.5239 -0.209598 18.7739 0.0161458 25.1889C0.0161458 49.3951 36.5214 77.3528 38.0741 78.5389L40 80.0002L41.9259 78.5389C43.4786 77.3599 79.9839 49.3951 79.9839 25.1889C80.2096 18.7739 78.0585 12.5239 74.0004 7.80421C69.9423 3.08453 64.3071 0.278894 58.326 0.000244141V0.000244141Z" fill="#978E8B" fill-opacity="0.75"/>
<g id="1">
<path id="Rectangle 10" d="M-136 88C-136 21.7258 -82.2742 -32 -16 -32H96C162.274 -32 216 21.7258 216 88V276C216 303.614 193.614 326 166 326H-86C-113.614 326 -136 303.614 -136 276V88Z" fill="#978E8B" fill-opacity="0.5"/>
</g>
</g>
</g>
</svg>
