<svg width="80" height="80" viewBox="0 0 80 80" fill="none" xmlns="http://www.w3.org/2000/svg">
<g id="fi-sr-carrot" clip-path="url(#clip0_1_585)">
<path id="Vector" d="M76.6671 16.6667H68.047L75.6904 9.02333C76.2976 8.39466 76.6336 7.55265 76.626 6.67866C76.6184 5.80467 76.2678 4.96863 75.6498 4.3506C75.0318 3.73258 74.1957 3.38201 73.3217 3.37442C72.4477 3.36683 71.6057 3.70281 70.977 4.31L63.3337 11.9533V3.33333C63.3337 2.44928 62.9825 1.60143 62.3574 0.976311C61.7323 0.35119 60.8844 0 60.0004 0C59.1163 0 58.2685 0.35119 57.6434 0.976311C57.0182 1.60143 56.6671 2.44928 56.6671 3.33333V18.1867C53.9386 15.282 50.7178 12.8829 47.1537 11.1C44.6782 10.0069 41.915 9.74574 39.2785 10.3557C36.642 10.9657 34.2742 12.414 32.5304 14.4833L42.3571 24.31C42.9642 24.9387 43.3002 25.7807 43.2926 26.6547C43.285 27.5287 42.9345 28.3647 42.3164 28.9827C41.6984 29.6008 40.8624 29.9513 39.9884 29.9589C39.1144 29.9665 38.2724 29.6305 37.6437 29.0233L28.4037 19.7867C24.6137 25.35 19.5337 34 14.4471 43.0667L22.3571 50.9767C22.9642 51.6053 23.3002 52.4473 23.2926 53.3213C23.285 54.1953 22.9345 55.0314 22.3164 55.6494C21.6984 56.2674 20.8624 56.618 19.9884 56.6256C19.1144 56.6332 18.2724 56.2972 17.6437 55.69L11.0737 49.12C7.38372 55.8067 3.85372 62.3733 1.00039 67.73C0.190351 69.3065 -0.0983151 71.0995 0.175977 72.8505C0.45027 74.6016 1.27336 76.2204 2.52666 77.4737C3.77996 78.727 5.39876 79.5501 7.14985 79.8244C8.90093 80.0987 10.6939 79.81 12.2704 79C21.6871 74 34.8104 66.89 45.7871 60.5L37.6437 52.3567C37.0365 51.728 36.7005 50.886 36.7081 50.012C36.7157 49.138 37.0663 48.302 37.6843 47.6839C38.3023 47.0659 39.1384 46.7153 40.0124 46.7078C40.8864 46.7002 41.7284 47.0361 42.3571 47.6433L51.7071 57C56.5533 54.2937 61.1394 51.146 65.407 47.5967C67.5157 45.8558 68.9983 43.4741 69.6294 40.8136C70.2606 38.153 70.0058 35.3591 68.9037 32.8567C67.1192 29.2898 64.719 26.0658 61.8137 23.3333H76.6671C77.5511 23.3333 78.399 22.9821 79.0241 22.357C79.6492 21.7319 80.0004 20.8841 80.0004 20C80.0004 19.1159 79.6492 18.2681 79.0241 17.643C78.399 17.0179 77.5511 16.6667 76.6671 16.6667Z" fill="#B20803" fill-opacity="0.5"/>
</g>
<defs>
<clipPath id="clip0_1_585">
<rect width="80" height="80" fill="white"/>
</clipPath>
</defs>
</svg>
